# xmcd
#
# Track frame offsets:
#	150
#	19277
#	34257
#	50160
#	63438
#	82003
#	95895
#	118332
#	133498
#	154957
#	166501
#	184664
#	200504
#	211604
#	226568
#	240747
#	251362
#
# Disc length: 3542 seconds
#
# Revision: 1
# Processed by: cddbd v1.5.2PL0 Copyright (c) Steve Scherf et al.
# Submitted via: audiograbber 1.83.01
#
DISCID=ef0dd411
DTITLE=Геннадий Белов - Травы, травы CD2
DYEAR=1900
DGENRE=
TTITLE0=Травы, травы
TTITLE1=Всегда со мной моя Россия
TTITLE2=Медсестра
TTITLE3=Край отцовский
TTITLE4=Письма с фронта
TTITLE5=Девушки в защитных гимнастерках
TTITLE6=Возьми мое сердце
TTITLE7=Снова в рощах Подмосковья
TTITLE8=Березы
TTITLE9=Песня Насреддина
TTITLE10=Победа остается молодой
TTITLE11=Поговори со мной
TTITLE12=Утомленное солнце
TTITLE13=Мусенька родная
TTITLE14=Дуня, люблю твои блины
TTITLE15=Люблю
TTITLE16=Добро
EXTD=
EXTT0=
EXTT1=
EXTT2=
EXTT3=
EXTT4=
EXTT5=
EXTT6=
EXTT7=
EXTT8=
EXTT9=
EXTT10=
EXTT11=
EXTT12=
EXTT13=
EXTT14=
EXTT15=
EXTT16=
PLAYORDER=
